<?xml version="1.0" encoding="UTF-8" standalone="no"?>
<!-- Created with Inkscape (http://www.inkscape.org/) -->

<svg
   version="1.1"
   id="svg1"
   width="1016"
   height="504"
   viewBox="0 0 1016 504"
   sodipodi:docname="VegetableValley.svg"
   inkscape:version="1.3.2 (091e20e, 2023-11-25, custom)"
   xmlns:inkscape="http://www.inkscape.org/namespaces/inkscape"
   xmlns:sodipodi="http://sodipodi.sourceforge.net/DTD/sodipodi-0.dtd"
   xmlns:xlink="http://www.w3.org/1999/xlink"
   xmlns="http://www.w3.org/2000/svg"
   xmlns:svg="http://www.w3.org/2000/svg">
  <defs
     id="defs1" />
  <sodipodi:namedview
     id="namedview1"
     pagecolor="#ffffff"
     bordercolor="#000000"
     borderopacity="0.25"
     inkscape:showpageshadow="2"
     inkscape:pageopacity="0.0"
     inkscape:pagecheckerboard="0"
     inkscape:deskcolor="#d1d1d1"
     inkscape:zoom="0.63124591"
     inkscape:cx="363.56671"
     inkscape:cy="496.63688"
     inkscape:window-width="1649"
     inkscape:window-height="1266"
     inkscape:window-x="3466"
     inkscape:window-y="51"
     inkscape:window-maximized="0"
     inkscape:current-layer="g1" />
  <g
     inkscape:groupmode="layer"
     inkscape:label="Image"
     id="g1">
    <image
       width="1016"
       height="504"
       preserveAspectRatio="none"
       xlink:href="VegetableValley.png"
       id="image1" />
    <path
       style="fill:#000000;fill-opacity:0.303125"
       d="M -0.39604217,465.05251 H 281.16519 v -16.06446 h 29.85167 v 16.31199 H 537.15959 V 448.9457 h 93.9548 v 16.17255 H 697.2048 V 448.9457 h 96.02012 v -63.88506 h 29.7507 v 32.12028 h 16.03971 v 31.78238 h 177.54477 v 55.81619 H -0.54455798 Z"
       id="path1" />
    <path
       style="fill:#000000;fill-opacity:0.303125"
       d="M 88.633958,264.92172 H 135.2613"
       id="path3" />
    <path
       style="fill:#000000;fill-opacity:0.303125"
       d="m 152.67426,248.9125 h 46.53495"
       id="path4" />
    <path
       style="fill:#000000;fill-opacity:0.303125"
       d="m 216.73408,232.77378 h 46.63396"
       id="path5" />
    <path
       style="fill:#000000;fill-opacity:0.303125"
       d="M -1.4002205,128.96031 H 202.47189 l 31.08489,-15.68247 h 64.06009 L 329.5419,97.455347 h 64.025 l 31.08931,-15.870661 h 30.48547 V 145.29797 H 584.87211 V 80.932745 l 29.8247,0 31.50496,16.312569 96.2033,0 63.40399,32.065046 H 1016.9452 V 166.9763 L -2.448325,167.57036 Z"
       id="path10"
       sodipodi:nodetypes="ccccccccccccccccccc" />
    <path
       style="fill:#000000;fill-opacity:0.303125"
       d="M -0.69307379,80.446065 H 71.551268"
       id="path11" />
    <path
       style="fill:#000000;fill-opacity:0.303125"
       d="M 184.54906,64.550165 H 263.5215"
       id="path12" />
    <path
       style="fill:#000000;fill-opacity:0.303125"
       d="m 296.5667,48.587652 h 47.04741"
       id="path13" />
    <path
       style="fill:#000000;fill-opacity:0.303125"
       d="m 424.26681,32.695149 h 31.43495"
       id="path14" />
    <path
       style="fill:#000000;fill-opacity:0.303125"
       d="m 584.172,32.695149 h 31.57497"
       id="path15" />
    <path
       style="fill:#000000;fill-opacity:0.303125"
       d="m 744.46026,48.614176 h 63.16873"
       id="path16" />
    <path
       style="fill:#000000;fill-opacity:0.303125"
       d="m 904.56031,96.83231 h 62.77268"
       id="path17" />
    <path
       style="fill:#000000;fill-opacity:0.303125"
       d="m 952.48141,64.356852 h 47.12902"
       id="path18" />
    <path
       style="fill:#000000;fill-opacity:0.303125"
       d="m 936.34269,16.53476 h 47.22803"
       id="path19" />
    <path
       style="fill:#000000;fill-opacity:0.303125"
       d="m -1.8812003,298.51679 283.9622303,-1.32214 31.33684,-31.40085 63.51475,-32.6449 14.41091,0.0419 63.41189,32.36534 31.73939,31.68709 34.32571,-0.0265 -0.0785,-16.47247 h 15.96251 V 264.57168 H 552.527 v -16.03253 h 14.91235 v 48.09757 h 35.50499 l 63.09768,-31.48648 h 13.36831 v 69.70342 H -1.3861476 Z"
       id="path20"
       sodipodi:nodetypes="ccccccccccccccccccccc" />
    <path
       style="fill:#000000;fill-opacity:0.303125"
       d="m 901.09494,297.03163 115.54526,0 v 37.72301 H 792.57939 v -85.94115 l 13.46543,0 z"
       id="path25"
       sodipodi:nodetypes="ccccccc" />
    <path
       style="fill:#000000;fill-opacity:0.303125"
       d="M 788.95525,326.72093 H 773.16306"
       id="path27-3" />
    <path
       style="fill:#000000;fill-opacity:0.303125;stroke-width:0.99777"
       d="m 678.79159,312.94928 h 15.57776 v 14.66731 h -15.64746 z"
       id="path29" />
    <path
       style="fill:#000000;fill-opacity:0.303125;stroke-width:0.967798"
       d="m 713.40033,327.4703 v -14.75979 h 13.1511 v 14.75979 z"
       id="path31" />
    <path
       style="fill:#000000;fill-opacity:0.303125;stroke-width:0.974814"
       d="M 745.43888,327.44003 V 312.8108 h 13.29711 v 14.62923 z"
       id="path32" />
    <path
       style="fill:#000000;fill-opacity:0.303125;stroke-width:0.994632"
       d="m 777.1924,327.58159 v -14.87734 h 16.17254 v 14.87734 z"
       id="path33" />
    <path
       style="fill:#000000;fill-opacity:0.303125;stroke-width:1.16718"
       d="M 328.12094,328.31896 H 440.39889 V 295.67704 H 328.02193 Z"
       id="path2" />
  </g>
</svg>
