<?xml version="1.0" encoding="UTF-8" standalone="no"?>
<!-- Created with Inkscape (http://www.inkscape.org/) -->

<svg
   version="1.1"
   id="svg1"
   width="1016"
   height="504"
   viewBox="0 0 1016 504"
   sodipodi:docname="VegetableValleyFull.svg"
   inkscape:version="1.3.2 (091e20e, 2023-11-25, custom)"
   xmlns:inkscape="http://www.inkscape.org/namespaces/inkscape"
   xmlns:sodipodi="http://sodipodi.sourceforge.net/DTD/sodipodi-0.dtd"
   xmlns:xlink="http://www.w3.org/1999/xlink"
   xmlns="http://www.w3.org/2000/svg"
   xmlns:svg="http://www.w3.org/2000/svg">
  <defs
     id="defs1" />
  <sodipodi:namedview
     id="namedview1"
     pagecolor="#ffffff"
     bordercolor="#000000"
     borderopacity="0.25"
     inkscape:showpageshadow="2"
     inkscape:pageopacity="0.0"
     inkscape:pagecheckerboard="0"
     inkscape:deskcolor="#d1d1d1"
     inkscape:zoom="12.431134"
     inkscape:cx="934.74979"
     inkscape:cy="49.432336"
     inkscape:window-width="2560"
     inkscape:window-height="1334"
     inkscape:window-x="-11"
     inkscape:window-y="-11"
     inkscape:window-maximized="1"
     inkscape:current-layer="g1" />
  <g
     inkscape:groupmode="layer"
     inkscape:label="Image"
     id="g1">
    <image
       width="1016"
       height="504"
       preserveAspectRatio="none"
       xlink:href="VegetableValley.png"
       id="image1" />
    <path
       style="fill:#000000;fill-opacity:0.303125"
       d="M -0.04477185,465.13475 H 281.05529 v -16.1542 h 29.89429 v 16.11416 h 226.16817 v -16.20914 h 93.80408 v 16.20914 h 66.26542 v -16.07782 h 96.08039 v -64.02375 h 29.9076 v 32.05664 h 15.93878 v 32.135 h 176.88568 v 54.8182 H 0 Z"
       id="path1" />
    <path
       style="fill:#000000;fill-opacity:0.303125"
       d="M 0.04419417,296.49871 H 281.125 L 312.81186,264.81186 375.25,233.0625 h 18.25 l 62.5625,31.875 32.3125,32.3125 h 32.1875 v -16.8125 h 16 V 264.5 h 16.0625 v -16.0625 h 15 v 47.875 H 600.25 L 663.0625,264.875 H 679.5 v 47.5625 h 16.125 V 327.5 H 679.75 V 336 H 0.125 Z"
       id="path2" />
    <path
       style="fill:#000000;fill-opacity:0.303125"
       d="m 712.52009,312.56603 h 15.08352 v 15.08351 h -15.12058 z"
       id="path3" />
    <path
       style="fill:#000000;fill-opacity:0.303125"
       d="m 744.49902,312.53771 h 15.04527 v 14.93151 h -15.01683 z"
       id="path4" />
    <path
       style="fill:#000000;fill-opacity:0.303125"
       d="m 792.4458,335.81007 v -8.24543 h -15.88753 v -15.12332 h 15.84731 v -63.87188 h 16.81263 l 95.32517,48.38657 h 111.45402 v 38.73339 z"
       id="path5" />
    <path
       style="fill:#000000;fill-opacity:0.303125"
       d="M 0.16088637,128.54821 H 199.65998 l 31.37284,-15.76687 h 64.75677 l 31.05106,-15.927747 h 64.67632 l 31.61418,-16.329966 h 32.33816 V 144.71729 H 584.33929 V 80.443184 h 32.90126 l 31.53373,16.329966 h 96.29049 l 63.87188,32.09683 h 207.06075 v 38.69317 H 0.06033239 Z"
       id="path6" />
    <path
       style="fill:#000000;fill-opacity:0.303125"
       d="M 0.05688192,80.374154 H 71.500574"
       id="path7" />
    <path
       style="fill:#000000;fill-opacity:0.303125"
       d="M 184.46807,64.447216 H 263.6477"
       id="path8" />
    <path
       style="fill:#000000;fill-opacity:0.303125"
       d="m 296.43313,48.587683 h 47.22015"
       id="path9" />
    <path
       style="fill:#000000;fill-opacity:0.303125"
       d="m 424.39601,32.422695 h 31.34194"
       id="path10" />
    <path
       style="fill:#000000;fill-opacity:0.303125"
       d="m 584.41973,32.458825 h 31.33262"
       id="path11" />
    <path
       style="fill:#000000;fill-opacity:0.303125"
       d="m 744.41369,48.406514 h 63.30958"
       id="path12" />
    <path
       style="fill:#000000;fill-opacity:0.303125"
       d="m 904.5836,96.612263 h 62.82612"
       id="path13" />
    <path
       style="fill:#000000;fill-opacity:0.303125"
       d="M 999.66744,64.515433 H 952.68862"
       id="path14" />
    <path
       style="fill:#000000;fill-opacity:0.303125"
       d="M 936.35866,16.571296 H 983.5788"
       id="path15" />
  </g>
</svg>
